G04 MADE WITH FRITZING*
G04 WWW.FRITZING.ORG*
G04 DOUBLE SIDED*
G04 HOLES PLATED*
G04 CONTOUR ON CENTER OF CONTOUR VECTOR*
%ASAXBY*%
%FSLAX23Y23*%
%MOIN*%
%OFA0B0*%
%SFA1.0B1.0*%
%ADD10C,0.082000*%
%ADD11C,0.070000*%
%ADD12C,0.066555*%
%ADD13C,0.075000*%
%ADD14C,0.078002*%
%ADD15C,0.078000*%
%ADD16C,0.074000*%
%ADD17C,0.170000*%
%ADD18C,0.140000*%
%ADD19C,0.093000*%
%ADD20C,0.062992*%
%ADD21R,0.082000X0.082000*%
%ADD22R,0.078002X0.078000*%
%ADD23R,0.078000X0.078000*%
%ADD24R,0.075000X0.075000*%
%ADD25R,0.062992X0.062992*%
%ADD26R,0.001000X0.001000*%
%LNCOPPER1*%
G90*
G70*
G54D10*
X4302Y1288D03*
X4600Y1288D03*
X2450Y2238D03*
X2748Y2238D03*
G54D11*
X4250Y188D03*
X4050Y188D03*
G54D12*
X4151Y1288D03*
X3950Y1288D03*
X4601Y1138D03*
X4400Y1138D03*
G54D13*
X2700Y1238D03*
X2950Y1238D03*
G54D14*
X3150Y2288D03*
X3150Y2388D03*
X3150Y2488D03*
G54D15*
X4600Y2038D03*
X4500Y2038D03*
G54D13*
X3250Y1463D03*
X3250Y838D03*
G54D10*
X2450Y988D03*
X2748Y988D03*
G54D16*
X2950Y1088D03*
X2950Y988D03*
X2950Y888D03*
X2950Y1088D03*
X2950Y988D03*
X2950Y888D03*
G54D17*
X4264Y1638D03*
X4500Y1638D03*
X4382Y1823D03*
X4264Y1638D03*
X4500Y1638D03*
X4382Y1823D03*
G54D13*
X2750Y238D03*
X2350Y238D03*
X3350Y1138D03*
X3750Y1138D03*
G54D16*
X3350Y1438D03*
X3350Y1438D03*
X3350Y1438D03*
X4350Y338D03*
X4350Y338D03*
X4350Y338D03*
X2300Y988D03*
X2300Y988D03*
X2300Y988D03*
X3500Y1438D03*
X3500Y1438D03*
X3500Y1438D03*
X3650Y1438D03*
X3650Y1438D03*
X3650Y1438D03*
G54D13*
X2900Y760D03*
X3112Y661D03*
X2900Y563D03*
G54D18*
X4150Y1738D03*
X3920Y1738D03*
X3363Y1738D03*
X3593Y1738D03*
X4150Y1738D03*
X3920Y1738D03*
X3363Y1738D03*
X3593Y1738D03*
G54D13*
X4600Y838D03*
X4400Y838D03*
X3900Y1038D03*
X4200Y1038D03*
X3900Y938D03*
X4200Y938D03*
X3900Y838D03*
X4200Y838D03*
X3900Y738D03*
X4200Y738D03*
X3900Y638D03*
X4200Y638D03*
X3900Y538D03*
X4200Y538D03*
X3900Y438D03*
X4200Y438D03*
X3900Y338D03*
X4200Y338D03*
X3450Y538D03*
X3750Y538D03*
X3450Y688D03*
X3750Y688D03*
X4550Y588D03*
X4550Y188D03*
X4400Y588D03*
X4400Y188D03*
G54D10*
X2450Y1638D03*
X2748Y1638D03*
X2450Y1788D03*
X2748Y1788D03*
X2450Y1938D03*
X2748Y1938D03*
X2450Y2088D03*
X2748Y2088D03*
G54D19*
X1450Y328D03*
X1450Y608D03*
X1450Y2308D03*
X1450Y2028D03*
X1450Y328D03*
X1450Y608D03*
X1450Y2308D03*
X1450Y2028D03*
X350Y328D03*
X350Y608D03*
X350Y2308D03*
X350Y2028D03*
X350Y328D03*
X350Y608D03*
X350Y2308D03*
X350Y2028D03*
X900Y328D03*
X900Y608D03*
X900Y2308D03*
X900Y2028D03*
X900Y328D03*
X900Y608D03*
X900Y2308D03*
X900Y2028D03*
X2000Y328D03*
X2000Y608D03*
X2000Y2308D03*
X2000Y2028D03*
X2000Y328D03*
X2000Y608D03*
X2000Y2308D03*
X2000Y2028D03*
G54D13*
X2900Y238D03*
X2900Y338D03*
X2900Y438D03*
X3200Y238D03*
X3200Y338D03*
X3200Y438D03*
X2350Y538D03*
X2750Y538D03*
X2350Y688D03*
X2750Y688D03*
G54D10*
X2950Y1588D03*
X3050Y1588D03*
X3150Y1588D03*
G54D13*
X2350Y1438D03*
X2750Y1438D03*
X3350Y1288D03*
X3750Y1288D03*
X2350Y838D03*
X2750Y838D03*
X2350Y388D03*
X2750Y388D03*
X3350Y338D03*
X3750Y338D03*
X3350Y838D03*
X3750Y838D03*
G54D20*
X2825Y1286D03*
X2825Y1188D03*
X3100Y1189D03*
X3100Y1288D03*
X2550Y1286D03*
X2550Y1188D03*
G54D13*
X3450Y988D03*
X3750Y988D03*
G54D21*
X4301Y1288D03*
X2449Y2238D03*
G54D22*
X3150Y2288D03*
G54D23*
X4600Y2038D03*
G54D21*
X2449Y988D03*
G54D24*
X2900Y760D03*
X4600Y838D03*
X3900Y1038D03*
G54D21*
X3451Y537D03*
X3451Y687D03*
X2449Y1638D03*
X2449Y1788D03*
X2449Y1938D03*
X2449Y2088D03*
X2950Y1588D03*
G54D25*
X2825Y1286D03*
X3100Y1189D03*
X2550Y1286D03*
G54D21*
X3451Y987D03*
G54D26*
X3343Y1548D02*
X3357Y1548D01*
X3493Y1548D02*
X3507Y1548D01*
X3643Y1548D02*
X3657Y1548D01*
X3339Y1547D02*
X3361Y1547D01*
X3489Y1547D02*
X3511Y1547D01*
X3639Y1547D02*
X3661Y1547D01*
X3337Y1546D02*
X3364Y1546D01*
X3487Y1546D02*
X3514Y1546D01*
X3637Y1546D02*
X3664Y1546D01*
X3334Y1545D02*
X3366Y1545D01*
X3484Y1545D02*
X3516Y1545D01*
X3634Y1545D02*
X3666Y1545D01*
X3332Y1544D02*
X3368Y1544D01*
X3482Y1544D02*
X3518Y1544D01*
X3632Y1544D02*
X3668Y1544D01*
X3331Y1543D02*
X3370Y1543D01*
X3481Y1543D02*
X3520Y1543D01*
X3631Y1543D02*
X3670Y1543D01*
X3329Y1542D02*
X3371Y1542D01*
X3479Y1542D02*
X3521Y1542D01*
X3629Y1542D02*
X3671Y1542D01*
X3328Y1541D02*
X3372Y1541D01*
X3478Y1541D02*
X3522Y1541D01*
X3628Y1541D02*
X3672Y1541D01*
X3327Y1540D02*
X3374Y1540D01*
X3477Y1540D02*
X3524Y1540D01*
X3627Y1540D02*
X3674Y1540D01*
X3326Y1539D02*
X3375Y1539D01*
X3476Y1539D02*
X3525Y1539D01*
X3626Y1539D02*
X3675Y1539D01*
X3325Y1538D02*
X3376Y1538D01*
X3475Y1538D02*
X3526Y1538D01*
X3625Y1538D02*
X3676Y1538D01*
X3324Y1537D02*
X3377Y1537D01*
X3474Y1537D02*
X3527Y1537D01*
X3624Y1537D02*
X3677Y1537D01*
X3323Y1536D02*
X3378Y1536D01*
X3473Y1536D02*
X3528Y1536D01*
X3623Y1536D02*
X3678Y1536D01*
X3322Y1535D02*
X3379Y1535D01*
X3472Y1535D02*
X3529Y1535D01*
X3622Y1535D02*
X3679Y1535D01*
X3321Y1534D02*
X3379Y1534D01*
X3471Y1534D02*
X3529Y1534D01*
X3621Y1534D02*
X3679Y1534D01*
X3320Y1533D02*
X3380Y1533D01*
X3470Y1533D02*
X3530Y1533D01*
X3620Y1533D02*
X3680Y1533D01*
X3320Y1532D02*
X3381Y1532D01*
X3470Y1532D02*
X3531Y1532D01*
X3620Y1532D02*
X3681Y1532D01*
X3319Y1531D02*
X3381Y1531D01*
X3469Y1531D02*
X3531Y1531D01*
X3619Y1531D02*
X3681Y1531D01*
X3318Y1530D02*
X3382Y1530D01*
X3468Y1530D02*
X3532Y1530D01*
X3618Y1530D02*
X3682Y1530D01*
X3318Y1529D02*
X3382Y1529D01*
X3468Y1529D02*
X3532Y1529D01*
X3618Y1529D02*
X3682Y1529D01*
X3317Y1528D02*
X3383Y1528D01*
X3467Y1528D02*
X3533Y1528D01*
X3617Y1528D02*
X3683Y1528D01*
X3317Y1527D02*
X3383Y1527D01*
X3467Y1527D02*
X3533Y1527D01*
X3617Y1527D02*
X3683Y1527D01*
X3317Y1526D02*
X3384Y1526D01*
X3467Y1526D02*
X3534Y1526D01*
X3617Y1526D02*
X3684Y1526D01*
X3316Y1525D02*
X3384Y1525D01*
X3466Y1525D02*
X3534Y1525D01*
X3616Y1525D02*
X3684Y1525D01*
X3316Y1524D02*
X3385Y1524D01*
X3466Y1524D02*
X3535Y1524D01*
X3616Y1524D02*
X3685Y1524D01*
X3315Y1523D02*
X3385Y1523D01*
X3465Y1523D02*
X3535Y1523D01*
X3615Y1523D02*
X3685Y1523D01*
X3315Y1522D02*
X3385Y1522D01*
X3465Y1522D02*
X3535Y1522D01*
X3615Y1522D02*
X3685Y1522D01*
X3315Y1521D02*
X3386Y1521D01*
X3465Y1521D02*
X3536Y1521D01*
X3615Y1521D02*
X3685Y1521D01*
X3315Y1520D02*
X3386Y1520D01*
X3465Y1520D02*
X3536Y1520D01*
X3615Y1520D02*
X3686Y1520D01*
X3314Y1519D02*
X3386Y1519D01*
X3464Y1519D02*
X3536Y1519D01*
X3614Y1519D02*
X3686Y1519D01*
X3314Y1518D02*
X3386Y1518D01*
X3464Y1518D02*
X3536Y1518D01*
X3614Y1518D02*
X3686Y1518D01*
X3314Y1517D02*
X3386Y1517D01*
X3464Y1517D02*
X3536Y1517D01*
X3614Y1517D02*
X3686Y1517D01*
X3314Y1516D02*
X3386Y1516D01*
X3464Y1516D02*
X3536Y1516D01*
X3614Y1516D02*
X3686Y1516D01*
X3314Y1515D02*
X3387Y1515D01*
X3464Y1515D02*
X3537Y1515D01*
X3614Y1515D02*
X3687Y1515D01*
X3314Y1514D02*
X3387Y1514D01*
X3464Y1514D02*
X3537Y1514D01*
X3614Y1514D02*
X3687Y1514D01*
X3314Y1513D02*
X3387Y1513D01*
X3464Y1513D02*
X3537Y1513D01*
X3614Y1513D02*
X3687Y1513D01*
X3314Y1512D02*
X3387Y1512D01*
X3464Y1512D02*
X3537Y1512D01*
X3614Y1512D02*
X3687Y1512D01*
X3314Y1511D02*
X3387Y1511D01*
X3464Y1511D02*
X3537Y1511D01*
X3614Y1511D02*
X3687Y1511D01*
X3314Y1510D02*
X3387Y1510D01*
X3464Y1510D02*
X3537Y1510D01*
X3614Y1510D02*
X3687Y1510D01*
X3314Y1509D02*
X3387Y1509D01*
X3464Y1509D02*
X3537Y1509D01*
X3614Y1509D02*
X3687Y1509D01*
X3314Y1508D02*
X3387Y1508D01*
X3464Y1508D02*
X3537Y1508D01*
X3614Y1508D02*
X3687Y1508D01*
X3314Y1507D02*
X3387Y1507D01*
X3464Y1507D02*
X3537Y1507D01*
X3614Y1507D02*
X3687Y1507D01*
X3314Y1506D02*
X3387Y1506D01*
X3464Y1506D02*
X3537Y1506D01*
X3614Y1506D02*
X3687Y1506D01*
X3314Y1505D02*
X3387Y1505D01*
X3464Y1505D02*
X3537Y1505D01*
X3614Y1505D02*
X3687Y1505D01*
X3314Y1504D02*
X3387Y1504D01*
X3464Y1504D02*
X3537Y1504D01*
X3614Y1504D02*
X3687Y1504D01*
X3314Y1503D02*
X3387Y1503D01*
X3464Y1503D02*
X3537Y1503D01*
X3614Y1503D02*
X3687Y1503D01*
X3314Y1502D02*
X3387Y1502D01*
X3464Y1502D02*
X3537Y1502D01*
X3614Y1502D02*
X3687Y1502D01*
X3314Y1501D02*
X3387Y1501D01*
X3464Y1501D02*
X3537Y1501D01*
X3614Y1501D02*
X3687Y1501D01*
X3314Y1500D02*
X3387Y1500D01*
X3464Y1500D02*
X3537Y1500D01*
X3614Y1500D02*
X3687Y1500D01*
X3314Y1499D02*
X3387Y1499D01*
X3464Y1499D02*
X3537Y1499D01*
X3614Y1499D02*
X3687Y1499D01*
X3314Y1498D02*
X3387Y1498D01*
X3464Y1498D02*
X3537Y1498D01*
X3614Y1498D02*
X3687Y1498D01*
X3314Y1497D02*
X3387Y1497D01*
X3464Y1497D02*
X3537Y1497D01*
X3614Y1497D02*
X3687Y1497D01*
X3314Y1496D02*
X3387Y1496D01*
X3464Y1496D02*
X3537Y1496D01*
X3614Y1496D02*
X3687Y1496D01*
X3314Y1495D02*
X3387Y1495D01*
X3464Y1495D02*
X3537Y1495D01*
X3614Y1495D02*
X3687Y1495D01*
X3314Y1494D02*
X3387Y1494D01*
X3464Y1494D02*
X3537Y1494D01*
X3614Y1494D02*
X3687Y1494D01*
X3314Y1493D02*
X3387Y1493D01*
X3464Y1493D02*
X3537Y1493D01*
X3614Y1493D02*
X3687Y1493D01*
X3314Y1492D02*
X3387Y1492D01*
X3464Y1492D02*
X3537Y1492D01*
X3614Y1492D02*
X3687Y1492D01*
X3314Y1491D02*
X3387Y1491D01*
X3464Y1491D02*
X3537Y1491D01*
X3614Y1491D02*
X3687Y1491D01*
X3314Y1490D02*
X3387Y1490D01*
X3464Y1490D02*
X3537Y1490D01*
X3614Y1490D02*
X3687Y1490D01*
X3314Y1489D02*
X3387Y1489D01*
X3464Y1489D02*
X3537Y1489D01*
X3614Y1489D02*
X3687Y1489D01*
X3314Y1488D02*
X3387Y1488D01*
X3464Y1488D02*
X3537Y1488D01*
X3614Y1488D02*
X3687Y1488D01*
X3314Y1487D02*
X3387Y1487D01*
X3464Y1487D02*
X3537Y1487D01*
X3614Y1487D02*
X3687Y1487D01*
X3314Y1486D02*
X3387Y1486D01*
X3464Y1486D02*
X3537Y1486D01*
X3614Y1486D02*
X3687Y1486D01*
X3314Y1485D02*
X3387Y1485D01*
X3464Y1485D02*
X3537Y1485D01*
X3614Y1485D02*
X3687Y1485D01*
X3314Y1484D02*
X3387Y1484D01*
X3464Y1484D02*
X3537Y1484D01*
X3614Y1484D02*
X3687Y1484D01*
X3314Y1483D02*
X3387Y1483D01*
X3464Y1483D02*
X3537Y1483D01*
X3614Y1483D02*
X3687Y1483D01*
X3314Y1482D02*
X3387Y1482D01*
X3464Y1482D02*
X3537Y1482D01*
X3614Y1482D02*
X3687Y1482D01*
X3314Y1481D02*
X3387Y1481D01*
X3464Y1481D02*
X3537Y1481D01*
X3614Y1481D02*
X3687Y1481D01*
X3314Y1480D02*
X3387Y1480D01*
X3464Y1480D02*
X3537Y1480D01*
X3614Y1480D02*
X3687Y1480D01*
X3314Y1479D02*
X3387Y1479D01*
X3464Y1479D02*
X3537Y1479D01*
X3614Y1479D02*
X3687Y1479D01*
X3314Y1478D02*
X3387Y1478D01*
X3464Y1478D02*
X3537Y1478D01*
X3614Y1478D02*
X3687Y1478D01*
X3314Y1477D02*
X3387Y1477D01*
X3464Y1477D02*
X3537Y1477D01*
X3614Y1477D02*
X3687Y1477D01*
X3314Y1476D02*
X3387Y1476D01*
X3464Y1476D02*
X3537Y1476D01*
X3614Y1476D02*
X3687Y1476D01*
X3314Y1475D02*
X3387Y1475D01*
X3464Y1475D02*
X3537Y1475D01*
X3614Y1475D02*
X3687Y1475D01*
X3314Y1474D02*
X3387Y1474D01*
X3464Y1474D02*
X3537Y1474D01*
X3614Y1474D02*
X3687Y1474D01*
X3314Y1473D02*
X3387Y1473D01*
X3464Y1473D02*
X3537Y1473D01*
X3614Y1473D02*
X3687Y1473D01*
X3314Y1472D02*
X3387Y1472D01*
X3464Y1472D02*
X3537Y1472D01*
X3614Y1472D02*
X3687Y1472D01*
X3314Y1471D02*
X3387Y1471D01*
X3464Y1471D02*
X3537Y1471D01*
X3614Y1471D02*
X3687Y1471D01*
X3314Y1470D02*
X3387Y1470D01*
X3464Y1470D02*
X3537Y1470D01*
X3614Y1470D02*
X3687Y1470D01*
X3314Y1469D02*
X3387Y1469D01*
X3464Y1469D02*
X3537Y1469D01*
X3614Y1469D02*
X3687Y1469D01*
X3314Y1468D02*
X3387Y1468D01*
X3464Y1468D02*
X3537Y1468D01*
X3614Y1468D02*
X3687Y1468D01*
X3314Y1467D02*
X3387Y1467D01*
X3464Y1467D02*
X3537Y1467D01*
X3614Y1467D02*
X3687Y1467D01*
X3314Y1466D02*
X3387Y1466D01*
X3464Y1466D02*
X3537Y1466D01*
X3614Y1466D02*
X3687Y1466D01*
X3314Y1465D02*
X3387Y1465D01*
X3464Y1465D02*
X3537Y1465D01*
X3614Y1465D02*
X3687Y1465D01*
X3314Y1464D02*
X3387Y1464D01*
X3464Y1464D02*
X3537Y1464D01*
X3614Y1464D02*
X3687Y1464D01*
X3314Y1463D02*
X3387Y1463D01*
X3464Y1463D02*
X3537Y1463D01*
X3614Y1463D02*
X3687Y1463D01*
X3314Y1462D02*
X3387Y1462D01*
X3464Y1462D02*
X3537Y1462D01*
X3614Y1462D02*
X3687Y1462D01*
X3314Y1461D02*
X3387Y1461D01*
X3464Y1461D02*
X3537Y1461D01*
X3614Y1461D02*
X3687Y1461D01*
X3314Y1460D02*
X3387Y1460D01*
X3464Y1460D02*
X3537Y1460D01*
X3614Y1460D02*
X3687Y1460D01*
X3314Y1459D02*
X3344Y1459D01*
X3356Y1459D02*
X3387Y1459D01*
X3464Y1459D02*
X3494Y1459D01*
X3506Y1459D02*
X3537Y1459D01*
X3614Y1459D02*
X3644Y1459D01*
X3656Y1459D02*
X3687Y1459D01*
X3314Y1458D02*
X3341Y1458D01*
X3359Y1458D02*
X3387Y1458D01*
X3464Y1458D02*
X3491Y1458D01*
X3509Y1458D02*
X3537Y1458D01*
X3614Y1458D02*
X3641Y1458D01*
X3659Y1458D02*
X3687Y1458D01*
X3314Y1457D02*
X3339Y1457D01*
X3361Y1457D02*
X3387Y1457D01*
X3464Y1457D02*
X3489Y1457D01*
X3511Y1457D02*
X3537Y1457D01*
X3614Y1457D02*
X3639Y1457D01*
X3661Y1457D02*
X3687Y1457D01*
X3314Y1456D02*
X3337Y1456D01*
X3363Y1456D02*
X3387Y1456D01*
X3464Y1456D02*
X3487Y1456D01*
X3513Y1456D02*
X3537Y1456D01*
X3614Y1456D02*
X3637Y1456D01*
X3663Y1456D02*
X3687Y1456D01*
X3314Y1455D02*
X3336Y1455D01*
X3364Y1455D02*
X3387Y1455D01*
X3464Y1455D02*
X3486Y1455D01*
X3514Y1455D02*
X3537Y1455D01*
X3614Y1455D02*
X3636Y1455D01*
X3664Y1455D02*
X3687Y1455D01*
X3314Y1454D02*
X3335Y1454D01*
X3366Y1454D02*
X3387Y1454D01*
X3464Y1454D02*
X3485Y1454D01*
X3516Y1454D02*
X3537Y1454D01*
X3614Y1454D02*
X3635Y1454D01*
X3666Y1454D02*
X3687Y1454D01*
X3314Y1453D02*
X3334Y1453D01*
X3367Y1453D02*
X3387Y1453D01*
X3464Y1453D02*
X3484Y1453D01*
X3517Y1453D02*
X3537Y1453D01*
X3614Y1453D02*
X3634Y1453D01*
X3667Y1453D02*
X3687Y1453D01*
X3314Y1452D02*
X3333Y1452D01*
X3367Y1452D02*
X3387Y1452D01*
X3464Y1452D02*
X3483Y1452D01*
X3517Y1452D02*
X3537Y1452D01*
X3614Y1452D02*
X3633Y1452D01*
X3667Y1452D02*
X3687Y1452D01*
X3314Y1451D02*
X3332Y1451D01*
X3368Y1451D02*
X3387Y1451D01*
X3464Y1451D02*
X3482Y1451D01*
X3518Y1451D02*
X3537Y1451D01*
X3614Y1451D02*
X3632Y1451D01*
X3668Y1451D02*
X3687Y1451D01*
X3314Y1450D02*
X3331Y1450D01*
X3369Y1450D02*
X3387Y1450D01*
X3464Y1450D02*
X3481Y1450D01*
X3519Y1450D02*
X3537Y1450D01*
X3614Y1450D02*
X3631Y1450D01*
X3669Y1450D02*
X3687Y1450D01*
X3314Y1449D02*
X3331Y1449D01*
X3370Y1449D02*
X3387Y1449D01*
X3464Y1449D02*
X3481Y1449D01*
X3520Y1449D02*
X3537Y1449D01*
X3614Y1449D02*
X3631Y1449D01*
X3670Y1449D02*
X3687Y1449D01*
X3314Y1448D02*
X3330Y1448D01*
X3370Y1448D02*
X3387Y1448D01*
X3464Y1448D02*
X3480Y1448D01*
X3520Y1448D02*
X3537Y1448D01*
X3614Y1448D02*
X3630Y1448D01*
X3670Y1448D02*
X3687Y1448D01*
X3314Y1447D02*
X3330Y1447D01*
X3371Y1447D02*
X3387Y1447D01*
X3464Y1447D02*
X3480Y1447D01*
X3521Y1447D02*
X3537Y1447D01*
X3614Y1447D02*
X3630Y1447D01*
X3671Y1447D02*
X3687Y1447D01*
X3314Y1446D02*
X3329Y1446D01*
X3371Y1446D02*
X3387Y1446D01*
X3464Y1446D02*
X3479Y1446D01*
X3521Y1446D02*
X3537Y1446D01*
X3614Y1446D02*
X3629Y1446D01*
X3671Y1446D02*
X3687Y1446D01*
X3314Y1445D02*
X3329Y1445D01*
X3371Y1445D02*
X3387Y1445D01*
X3464Y1445D02*
X3479Y1445D01*
X3521Y1445D02*
X3537Y1445D01*
X3614Y1445D02*
X3629Y1445D01*
X3671Y1445D02*
X3687Y1445D01*
X3314Y1444D02*
X3329Y1444D01*
X3372Y1444D02*
X3387Y1444D01*
X3464Y1444D02*
X3479Y1444D01*
X3522Y1444D02*
X3537Y1444D01*
X3614Y1444D02*
X3629Y1444D01*
X3672Y1444D02*
X3687Y1444D01*
X3314Y1443D02*
X3328Y1443D01*
X3372Y1443D02*
X3387Y1443D01*
X3464Y1443D02*
X3478Y1443D01*
X3522Y1443D02*
X3537Y1443D01*
X3614Y1443D02*
X3628Y1443D01*
X3672Y1443D02*
X3687Y1443D01*
X3314Y1442D02*
X3328Y1442D01*
X3372Y1442D02*
X3387Y1442D01*
X3464Y1442D02*
X3478Y1442D01*
X3522Y1442D02*
X3537Y1442D01*
X3614Y1442D02*
X3628Y1442D01*
X3672Y1442D02*
X3687Y1442D01*
X3314Y1441D02*
X3328Y1441D01*
X3372Y1441D02*
X3387Y1441D01*
X3464Y1441D02*
X3478Y1441D01*
X3522Y1441D02*
X3537Y1441D01*
X3614Y1441D02*
X3628Y1441D01*
X3672Y1441D02*
X3687Y1441D01*
X3314Y1440D02*
X3328Y1440D01*
X3373Y1440D02*
X3387Y1440D01*
X3464Y1440D02*
X3478Y1440D01*
X3523Y1440D02*
X3537Y1440D01*
X3614Y1440D02*
X3628Y1440D01*
X3673Y1440D02*
X3687Y1440D01*
X3314Y1439D02*
X3328Y1439D01*
X3373Y1439D02*
X3387Y1439D01*
X3464Y1439D02*
X3478Y1439D01*
X3523Y1439D02*
X3537Y1439D01*
X3614Y1439D02*
X3628Y1439D01*
X3673Y1439D02*
X3687Y1439D01*
X3314Y1438D02*
X3328Y1438D01*
X3373Y1438D02*
X3387Y1438D01*
X3464Y1438D02*
X3478Y1438D01*
X3523Y1438D02*
X3537Y1438D01*
X3614Y1438D02*
X3628Y1438D01*
X3673Y1438D02*
X3687Y1438D01*
X3314Y1437D02*
X3328Y1437D01*
X3373Y1437D02*
X3387Y1437D01*
X3464Y1437D02*
X3478Y1437D01*
X3523Y1437D02*
X3537Y1437D01*
X3614Y1437D02*
X3628Y1437D01*
X3673Y1437D02*
X3687Y1437D01*
X3314Y1436D02*
X3328Y1436D01*
X3373Y1436D02*
X3387Y1436D01*
X3464Y1436D02*
X3478Y1436D01*
X3523Y1436D02*
X3537Y1436D01*
X3614Y1436D02*
X3628Y1436D01*
X3673Y1436D02*
X3687Y1436D01*
X3314Y1435D02*
X3328Y1435D01*
X3372Y1435D02*
X3387Y1435D01*
X3464Y1435D02*
X3478Y1435D01*
X3522Y1435D02*
X3537Y1435D01*
X3614Y1435D02*
X3628Y1435D01*
X3672Y1435D02*
X3687Y1435D01*
X3314Y1434D02*
X3328Y1434D01*
X3372Y1434D02*
X3386Y1434D01*
X3464Y1434D02*
X3478Y1434D01*
X3522Y1434D02*
X3536Y1434D01*
X3614Y1434D02*
X3628Y1434D01*
X3672Y1434D02*
X3686Y1434D01*
X3314Y1433D02*
X3328Y1433D01*
X3372Y1433D02*
X3386Y1433D01*
X3464Y1433D02*
X3478Y1433D01*
X3522Y1433D02*
X3536Y1433D01*
X3614Y1433D02*
X3628Y1433D01*
X3672Y1433D02*
X3686Y1433D01*
X3314Y1432D02*
X3329Y1432D01*
X3372Y1432D02*
X3386Y1432D01*
X3464Y1432D02*
X3479Y1432D01*
X3522Y1432D02*
X3536Y1432D01*
X3614Y1432D02*
X3629Y1432D01*
X3672Y1432D02*
X3686Y1432D01*
X3314Y1431D02*
X3329Y1431D01*
X3372Y1431D02*
X3386Y1431D01*
X3464Y1431D02*
X3479Y1431D01*
X3521Y1431D02*
X3536Y1431D01*
X3614Y1431D02*
X3629Y1431D01*
X3671Y1431D02*
X3686Y1431D01*
X3315Y1430D02*
X3329Y1430D01*
X3371Y1430D02*
X3386Y1430D01*
X3465Y1430D02*
X3479Y1430D01*
X3521Y1430D02*
X3536Y1430D01*
X3615Y1430D02*
X3629Y1430D01*
X3671Y1430D02*
X3686Y1430D01*
X3315Y1429D02*
X3330Y1429D01*
X3371Y1429D02*
X3386Y1429D01*
X3465Y1429D02*
X3480Y1429D01*
X3521Y1429D02*
X3536Y1429D01*
X3615Y1429D02*
X3630Y1429D01*
X3671Y1429D02*
X3686Y1429D01*
X3315Y1428D02*
X3330Y1428D01*
X3370Y1428D02*
X3385Y1428D01*
X3465Y1428D02*
X3480Y1428D01*
X3520Y1428D02*
X3535Y1428D01*
X3615Y1428D02*
X3630Y1428D01*
X3670Y1428D02*
X3685Y1428D01*
X3315Y1427D02*
X3331Y1427D01*
X3370Y1427D02*
X3385Y1427D01*
X3465Y1427D02*
X3481Y1427D01*
X3520Y1427D02*
X3535Y1427D01*
X3615Y1427D02*
X3631Y1427D01*
X3670Y1427D02*
X3685Y1427D01*
X3316Y1426D02*
X3331Y1426D01*
X3369Y1426D02*
X3385Y1426D01*
X3466Y1426D02*
X3481Y1426D01*
X3519Y1426D02*
X3535Y1426D01*
X3616Y1426D02*
X3631Y1426D01*
X3669Y1426D02*
X3685Y1426D01*
X3316Y1425D02*
X3332Y1425D01*
X3368Y1425D02*
X3384Y1425D01*
X3466Y1425D02*
X3482Y1425D01*
X3518Y1425D02*
X3534Y1425D01*
X3616Y1425D02*
X3632Y1425D01*
X3668Y1425D02*
X3684Y1425D01*
X3316Y1424D02*
X3333Y1424D01*
X3368Y1424D02*
X3384Y1424D01*
X3466Y1424D02*
X3483Y1424D01*
X3518Y1424D02*
X3534Y1424D01*
X3616Y1424D02*
X3633Y1424D01*
X3668Y1424D02*
X3684Y1424D01*
X3317Y1423D02*
X3334Y1423D01*
X3367Y1423D02*
X3384Y1423D01*
X3467Y1423D02*
X3484Y1423D01*
X3517Y1423D02*
X3534Y1423D01*
X3617Y1423D02*
X3634Y1423D01*
X3667Y1423D02*
X3684Y1423D01*
X3317Y1422D02*
X3335Y1422D01*
X3366Y1422D02*
X3383Y1422D01*
X3467Y1422D02*
X3485Y1422D01*
X3516Y1422D02*
X3533Y1422D01*
X3617Y1422D02*
X3635Y1422D01*
X3666Y1422D02*
X3683Y1422D01*
X3318Y1421D02*
X3336Y1421D01*
X3365Y1421D02*
X3383Y1421D01*
X3468Y1421D02*
X3486Y1421D01*
X3515Y1421D02*
X3533Y1421D01*
X3618Y1421D02*
X3636Y1421D01*
X3665Y1421D02*
X3683Y1421D01*
X3318Y1420D02*
X3337Y1420D01*
X3363Y1420D02*
X3382Y1420D01*
X3468Y1420D02*
X3487Y1420D01*
X3513Y1420D02*
X3532Y1420D01*
X3618Y1420D02*
X3637Y1420D01*
X3663Y1420D02*
X3682Y1420D01*
X3319Y1419D02*
X3339Y1419D01*
X3362Y1419D02*
X3381Y1419D01*
X3469Y1419D02*
X3489Y1419D01*
X3512Y1419D02*
X3531Y1419D01*
X3619Y1419D02*
X3639Y1419D01*
X3662Y1419D02*
X3681Y1419D01*
X3320Y1418D02*
X3340Y1418D01*
X3360Y1418D02*
X3381Y1418D01*
X3470Y1418D02*
X3490Y1418D01*
X3510Y1418D02*
X3531Y1418D01*
X3620Y1418D02*
X3640Y1418D01*
X3660Y1418D02*
X3681Y1418D01*
X3320Y1417D02*
X3343Y1417D01*
X3357Y1417D02*
X3380Y1417D01*
X3470Y1417D02*
X3493Y1417D01*
X3507Y1417D02*
X3530Y1417D01*
X3620Y1417D02*
X3643Y1417D01*
X3657Y1417D02*
X3680Y1417D01*
X3321Y1416D02*
X3347Y1416D01*
X3353Y1416D02*
X3380Y1416D01*
X3471Y1416D02*
X3497Y1416D01*
X3503Y1416D02*
X3529Y1416D01*
X3621Y1416D02*
X3647Y1416D01*
X3653Y1416D02*
X3679Y1416D01*
X3322Y1415D02*
X3379Y1415D01*
X3472Y1415D02*
X3529Y1415D01*
X3622Y1415D02*
X3679Y1415D01*
X3322Y1414D02*
X3378Y1414D01*
X3472Y1414D02*
X3528Y1414D01*
X3622Y1414D02*
X3678Y1414D01*
X3323Y1413D02*
X3377Y1413D01*
X3473Y1413D02*
X3527Y1413D01*
X3623Y1413D02*
X3677Y1413D01*
X3324Y1412D02*
X3376Y1412D01*
X3474Y1412D02*
X3526Y1412D01*
X3624Y1412D02*
X3676Y1412D01*
X3325Y1411D02*
X3375Y1411D01*
X3475Y1411D02*
X3525Y1411D01*
X3625Y1411D02*
X3675Y1411D01*
X3326Y1410D02*
X3374Y1410D01*
X3476Y1410D02*
X3524Y1410D01*
X3626Y1410D02*
X3674Y1410D01*
X3328Y1409D02*
X3373Y1409D01*
X3478Y1409D02*
X3523Y1409D01*
X3628Y1409D02*
X3673Y1409D01*
X3329Y1408D02*
X3371Y1408D01*
X3479Y1408D02*
X3521Y1408D01*
X3629Y1408D02*
X3671Y1408D01*
X3330Y1407D02*
X3370Y1407D01*
X3480Y1407D02*
X3520Y1407D01*
X3630Y1407D02*
X3670Y1407D01*
X3332Y1406D02*
X3368Y1406D01*
X3482Y1406D02*
X3518Y1406D01*
X3632Y1406D02*
X3668Y1406D01*
X3334Y1405D02*
X3367Y1405D01*
X3484Y1405D02*
X3517Y1405D01*
X3634Y1405D02*
X3667Y1405D01*
X3336Y1404D02*
X3365Y1404D01*
X3486Y1404D02*
X3515Y1404D01*
X3636Y1404D02*
X3665Y1404D01*
X3338Y1403D02*
X3362Y1403D01*
X3488Y1403D02*
X3512Y1403D01*
X3638Y1403D02*
X3662Y1403D01*
X3342Y1402D02*
X3359Y1402D01*
X3492Y1402D02*
X3509Y1402D01*
X3642Y1402D02*
X3659Y1402D01*
X3348Y1401D02*
X3352Y1401D01*
X3498Y1401D02*
X3502Y1401D01*
X3648Y1401D02*
X3652Y1401D01*
X2292Y1098D02*
X2308Y1098D01*
X2289Y1097D02*
X2312Y1097D01*
X2286Y1096D02*
X2314Y1096D01*
X2284Y1095D02*
X2316Y1095D01*
X2282Y1094D02*
X2318Y1094D01*
X2281Y1093D02*
X2320Y1093D01*
X2279Y1092D02*
X2321Y1092D01*
X2278Y1091D02*
X2323Y1091D01*
X2277Y1090D02*
X2324Y1090D01*
X2276Y1089D02*
X2325Y1089D01*
X2275Y1088D02*
X2326Y1088D01*
X2274Y1087D02*
X2327Y1087D01*
X2273Y1086D02*
X2328Y1086D01*
X2272Y1085D02*
X2329Y1085D01*
X2271Y1084D02*
X2329Y1084D01*
X2270Y1083D02*
X2330Y1083D01*
X2270Y1082D02*
X2331Y1082D01*
X2269Y1081D02*
X2331Y1081D01*
X2269Y1080D02*
X2332Y1080D01*
X2268Y1079D02*
X2333Y1079D01*
X2267Y1078D02*
X2333Y1078D01*
X2267Y1077D02*
X2334Y1077D01*
X2267Y1076D02*
X2334Y1076D01*
X2266Y1075D02*
X2334Y1075D01*
X2266Y1074D02*
X2335Y1074D01*
X2265Y1073D02*
X2335Y1073D01*
X2265Y1072D02*
X2335Y1072D01*
X2265Y1071D02*
X2336Y1071D01*
X2265Y1070D02*
X2336Y1070D01*
X2264Y1069D02*
X2336Y1069D01*
X2264Y1068D02*
X2336Y1068D01*
X2264Y1067D02*
X2336Y1067D01*
X2264Y1066D02*
X2337Y1066D01*
X2264Y1065D02*
X2337Y1065D01*
X2264Y1064D02*
X2337Y1064D01*
X2264Y1063D02*
X2337Y1063D01*
X2264Y1062D02*
X2337Y1062D01*
X2264Y1061D02*
X2337Y1061D01*
X2264Y1060D02*
X2337Y1060D01*
X2264Y1059D02*
X2337Y1059D01*
X2264Y1058D02*
X2337Y1058D01*
X2264Y1057D02*
X2337Y1057D01*
X2264Y1056D02*
X2337Y1056D01*
X2264Y1055D02*
X2337Y1055D01*
X2264Y1054D02*
X2337Y1054D01*
X2264Y1053D02*
X2337Y1053D01*
X2264Y1052D02*
X2337Y1052D01*
X2264Y1051D02*
X2337Y1051D01*
X2264Y1050D02*
X2337Y1050D01*
X2264Y1049D02*
X2337Y1049D01*
X2264Y1048D02*
X2337Y1048D01*
X2264Y1047D02*
X2337Y1047D01*
X2264Y1046D02*
X2337Y1046D01*
X2264Y1045D02*
X2337Y1045D01*
X2264Y1044D02*
X2337Y1044D01*
X2264Y1043D02*
X2337Y1043D01*
X2264Y1042D02*
X2337Y1042D01*
X2264Y1041D02*
X2337Y1041D01*
X2264Y1040D02*
X2337Y1040D01*
X2264Y1039D02*
X2337Y1039D01*
X2264Y1038D02*
X2337Y1038D01*
X2264Y1037D02*
X2337Y1037D01*
X2264Y1036D02*
X2337Y1036D01*
X2264Y1035D02*
X2337Y1035D01*
X2264Y1034D02*
X2337Y1034D01*
X2264Y1033D02*
X2337Y1033D01*
X2264Y1032D02*
X2337Y1032D01*
X2264Y1031D02*
X2337Y1031D01*
X2264Y1030D02*
X2337Y1030D01*
X2264Y1029D02*
X2337Y1029D01*
X2264Y1028D02*
X2337Y1028D01*
X2264Y1027D02*
X2337Y1027D01*
X2264Y1026D02*
X2337Y1026D01*
X2264Y1025D02*
X2337Y1025D01*
X2264Y1024D02*
X2337Y1024D01*
X2264Y1023D02*
X2337Y1023D01*
X2264Y1022D02*
X2337Y1022D01*
X2264Y1021D02*
X2337Y1021D01*
X2264Y1020D02*
X2337Y1020D01*
X2264Y1019D02*
X2337Y1019D01*
X2264Y1018D02*
X2337Y1018D01*
X2264Y1017D02*
X2337Y1017D01*
X2264Y1016D02*
X2337Y1016D01*
X2264Y1015D02*
X2337Y1015D01*
X2264Y1014D02*
X2337Y1014D01*
X2264Y1013D02*
X2337Y1013D01*
X2264Y1012D02*
X2337Y1012D01*
X2264Y1011D02*
X2337Y1011D01*
X2264Y1010D02*
X2337Y1010D01*
X2264Y1009D02*
X2294Y1009D01*
X2307Y1009D02*
X2337Y1009D01*
X2264Y1008D02*
X2291Y1008D01*
X2310Y1008D02*
X2337Y1008D01*
X2264Y1007D02*
X2289Y1007D01*
X2312Y1007D02*
X2337Y1007D01*
X2264Y1006D02*
X2287Y1006D01*
X2313Y1006D02*
X2337Y1006D01*
X2264Y1005D02*
X2286Y1005D01*
X2315Y1005D02*
X2337Y1005D01*
X2264Y1004D02*
X2285Y1004D01*
X2316Y1004D02*
X2337Y1004D01*
X2264Y1003D02*
X2284Y1003D01*
X2317Y1003D02*
X2337Y1003D01*
X2264Y1002D02*
X2283Y1002D01*
X2318Y1002D02*
X2337Y1002D01*
X2264Y1001D02*
X2282Y1001D01*
X2318Y1001D02*
X2337Y1001D01*
X2264Y1000D02*
X2281Y1000D01*
X2319Y1000D02*
X2337Y1000D01*
X2264Y999D02*
X2281Y999D01*
X2320Y999D02*
X2337Y999D01*
X2264Y998D02*
X2280Y998D01*
X2320Y998D02*
X2337Y998D01*
X2264Y997D02*
X2280Y997D01*
X2321Y997D02*
X2337Y997D01*
X2264Y996D02*
X2279Y996D01*
X2321Y996D02*
X2337Y996D01*
X2264Y995D02*
X2279Y995D01*
X2322Y995D02*
X2337Y995D01*
X2264Y994D02*
X2279Y994D01*
X2322Y994D02*
X2337Y994D01*
X2264Y993D02*
X2278Y993D01*
X2322Y993D02*
X2337Y993D01*
X2264Y992D02*
X2278Y992D01*
X2322Y992D02*
X2337Y992D01*
X2264Y991D02*
X2278Y991D01*
X2323Y991D02*
X2337Y991D01*
X2264Y990D02*
X2278Y990D01*
X2323Y990D02*
X2337Y990D01*
X2264Y989D02*
X2278Y989D01*
X2323Y989D02*
X2337Y989D01*
X2264Y988D02*
X2278Y988D01*
X2323Y988D02*
X2337Y988D01*
X2264Y987D02*
X2278Y987D01*
X2323Y987D02*
X2337Y987D01*
X2264Y986D02*
X2278Y986D01*
X2323Y986D02*
X2337Y986D01*
X2264Y985D02*
X2278Y985D01*
X2323Y985D02*
X2337Y985D01*
X2264Y984D02*
X2278Y984D01*
X2322Y984D02*
X2337Y984D01*
X2264Y983D02*
X2278Y983D01*
X2322Y983D02*
X2336Y983D01*
X2264Y982D02*
X2279Y982D01*
X2322Y982D02*
X2336Y982D01*
X2264Y981D02*
X2279Y981D01*
X2322Y981D02*
X2336Y981D01*
X2265Y980D02*
X2279Y980D01*
X2321Y980D02*
X2336Y980D01*
X2265Y979D02*
X2280Y979D01*
X2321Y979D02*
X2336Y979D01*
X2265Y978D02*
X2280Y978D01*
X2320Y978D02*
X2335Y978D01*
X2265Y977D02*
X2281Y977D01*
X2320Y977D02*
X2335Y977D01*
X2266Y976D02*
X2281Y976D01*
X2319Y976D02*
X2335Y976D01*
X2266Y975D02*
X2282Y975D01*
X2318Y975D02*
X2334Y975D01*
X2267Y974D02*
X2283Y974D01*
X2318Y974D02*
X2334Y974D01*
X2267Y973D02*
X2284Y973D01*
X2317Y973D02*
X2334Y973D01*
X2267Y972D02*
X2285Y972D01*
X2316Y972D02*
X2333Y972D01*
X2268Y971D02*
X2286Y971D01*
X2315Y971D02*
X2333Y971D01*
X2268Y970D02*
X2287Y970D01*
X2313Y970D02*
X2332Y970D01*
X2269Y969D02*
X2289Y969D01*
X2312Y969D02*
X2332Y969D01*
X2270Y968D02*
X2291Y968D01*
X2310Y968D02*
X2331Y968D01*
X2270Y967D02*
X2294Y967D01*
X2307Y967D02*
X2330Y967D01*
X2271Y966D02*
X2329Y966D01*
X2272Y965D02*
X2329Y965D01*
X2273Y964D02*
X2328Y964D01*
X2274Y963D02*
X2327Y963D01*
X2275Y962D02*
X2326Y962D01*
X2276Y961D02*
X2325Y961D01*
X2277Y960D02*
X2324Y960D01*
X2278Y959D02*
X2323Y959D01*
X2279Y958D02*
X2321Y958D01*
X2281Y957D02*
X2320Y957D01*
X2282Y956D02*
X2318Y956D01*
X2284Y955D02*
X2316Y955D01*
X2286Y954D02*
X2314Y954D01*
X2289Y953D02*
X2312Y953D01*
X2292Y952D02*
X2308Y952D01*
X4347Y375D02*
X4427Y375D01*
X4341Y374D02*
X4433Y374D01*
X4338Y373D02*
X4436Y373D01*
X4336Y372D02*
X4439Y372D01*
X4334Y371D02*
X4441Y371D01*
X4332Y370D02*
X4442Y370D01*
X4330Y369D02*
X4444Y369D01*
X4329Y368D02*
X4445Y368D01*
X4327Y367D02*
X4447Y367D01*
X4326Y366D02*
X4448Y366D01*
X4325Y365D02*
X4449Y365D01*
X4324Y364D02*
X4450Y364D01*
X4323Y363D02*
X4451Y363D01*
X4322Y362D02*
X4452Y362D01*
X4322Y361D02*
X4453Y361D01*
X4321Y360D02*
X4347Y360D01*
X4353Y360D02*
X4453Y360D01*
X4320Y359D02*
X4343Y359D01*
X4357Y359D02*
X4454Y359D01*
X4319Y358D02*
X4340Y358D01*
X4360Y358D02*
X4455Y358D01*
X4319Y357D02*
X4338Y357D01*
X4362Y357D02*
X4455Y357D01*
X4318Y356D02*
X4337Y356D01*
X4363Y356D02*
X4456Y356D01*
X4318Y355D02*
X4336Y355D01*
X4365Y355D02*
X4457Y355D01*
X4317Y354D02*
X4334Y354D01*
X4366Y354D02*
X4457Y354D01*
X4317Y353D02*
X4333Y353D01*
X4367Y353D02*
X4458Y353D01*
X4316Y352D02*
X4333Y352D01*
X4368Y352D02*
X4458Y352D01*
X4316Y351D02*
X4332Y351D01*
X4368Y351D02*
X4458Y351D01*
X4316Y350D02*
X4331Y350D01*
X4369Y350D02*
X4459Y350D01*
X4315Y349D02*
X4331Y349D01*
X4370Y349D02*
X4459Y349D01*
X4315Y348D02*
X4330Y348D01*
X4370Y348D02*
X4459Y348D01*
X4315Y347D02*
X4329Y347D01*
X4371Y347D02*
X4460Y347D01*
X4314Y346D02*
X4329Y346D01*
X4371Y346D02*
X4460Y346D01*
X4314Y345D02*
X4329Y345D01*
X4371Y345D02*
X4460Y345D01*
X4314Y344D02*
X4329Y344D01*
X4372Y344D02*
X4460Y344D01*
X4314Y343D02*
X4328Y343D01*
X4372Y343D02*
X4460Y343D01*
X4314Y342D02*
X4328Y342D01*
X4372Y342D02*
X4460Y342D01*
X4314Y341D02*
X4328Y341D01*
X4372Y341D02*
X4460Y341D01*
X4314Y340D02*
X4328Y340D01*
X4373Y340D02*
X4461Y340D01*
X4314Y339D02*
X4328Y339D01*
X4373Y339D02*
X4461Y339D01*
X4314Y338D02*
X4328Y338D01*
X4373Y338D02*
X4461Y338D01*
X4314Y337D02*
X4328Y337D01*
X4373Y337D02*
X4461Y337D01*
X4314Y336D02*
X4328Y336D01*
X4372Y336D02*
X4460Y336D01*
X4314Y335D02*
X4328Y335D01*
X4372Y335D02*
X4460Y335D01*
X4314Y334D02*
X4328Y334D01*
X4372Y334D02*
X4460Y334D01*
X4314Y333D02*
X4328Y333D01*
X4372Y333D02*
X4460Y333D01*
X4314Y332D02*
X4329Y332D01*
X4372Y332D02*
X4460Y332D01*
X4314Y331D02*
X4329Y331D01*
X4371Y331D02*
X4460Y331D01*
X4315Y330D02*
X4329Y330D01*
X4371Y330D02*
X4460Y330D01*
X4315Y329D02*
X4330Y329D01*
X4371Y329D02*
X4459Y329D01*
X4315Y328D02*
X4330Y328D01*
X4370Y328D02*
X4459Y328D01*
X4315Y327D02*
X4331Y327D01*
X4369Y327D02*
X4459Y327D01*
X4316Y326D02*
X4331Y326D01*
X4369Y326D02*
X4459Y326D01*
X4316Y325D02*
X4332Y325D01*
X4368Y325D02*
X4458Y325D01*
X4316Y324D02*
X4333Y324D01*
X4367Y324D02*
X4458Y324D01*
X4317Y323D02*
X4334Y323D01*
X4366Y323D02*
X4457Y323D01*
X4317Y322D02*
X4335Y322D01*
X4365Y322D02*
X4457Y322D01*
X4318Y321D02*
X4336Y321D01*
X4364Y321D02*
X4456Y321D01*
X4318Y320D02*
X4337Y320D01*
X4363Y320D02*
X4456Y320D01*
X4319Y319D02*
X4339Y319D01*
X4361Y319D02*
X4455Y319D01*
X4320Y318D02*
X4341Y318D01*
X4359Y318D02*
X4455Y318D01*
X4320Y317D02*
X4344Y317D01*
X4356Y317D02*
X4454Y317D01*
X4321Y316D02*
X4453Y316D01*
X4322Y315D02*
X4452Y315D01*
X4323Y314D02*
X4452Y314D01*
X4324Y313D02*
X4451Y313D01*
X4325Y312D02*
X4450Y312D01*
X4326Y311D02*
X4449Y311D01*
X4327Y310D02*
X4448Y310D01*
X4328Y309D02*
X4446Y309D01*
X4329Y308D02*
X4445Y308D01*
X4331Y307D02*
X4443Y307D01*
X4332Y306D02*
X4442Y306D01*
X4334Y305D02*
X4440Y305D01*
X4337Y304D02*
X4438Y304D01*
X4339Y303D02*
X4435Y303D01*
X4343Y302D02*
X4431Y302D01*
D02*
G04 End of Copper1*
M02*