; NON-PLATED HOLES START AT T1
; THROUGH (PLATED) HOLES START AT T100
M48
INCH
T1C0.124994
T100C0.031497
T101C0.073000
T102C0.042000
T103C0.032000
T104C0.038000
T105C0.100000
T106C0.030000
T107C0.044000
T108C0.038001
T109C0.031833
T110C0.035000
T111C0.118000
%
T1
X042400Y021178
X030699Y021178
T100
X025500Y012862
X028250Y011877
X031000Y012877
X031000Y011893
X025500Y011877
X028250Y012862
T101
X003500Y020277
X009000Y020277
X009000Y023077
X014500Y020277
X020000Y006077
X020000Y023077
X020000Y003277
X014500Y023077
X003500Y003277
X003500Y006077
X009000Y003277
X009000Y006077
X020000Y020277
X014500Y003277
X014500Y006077
X003500Y023077
T102
X024500Y022377
X030500Y015877
X027480Y016377
X046000Y012877
X027480Y009877
X043020Y012877
X024500Y009877
X027480Y019377
X024500Y017877
X024500Y020877
X027480Y017877
X031500Y015877
X027480Y022377
X024500Y019377
X027480Y020877
X029500Y015877
X024500Y016377
T103
X029500Y008877
X029500Y010877
X029500Y009877
T104
X045000Y020377
X046000Y020377
T105
X035926Y017377
X033626Y017377
X041500Y017377
X039200Y017377
T106
X040500Y001877
X042500Y001877
T107
X035000Y014377
X043500Y003377
X033500Y014377
X023000Y009877
X036500Y014377
T108
X031499Y022877
X031499Y023877
X031499Y024877
T109
X039500Y012877
X046008Y011378
X044000Y011378
X041508Y012877
T110
X023500Y014377
X039000Y005377
X042000Y003377
X039000Y006377
X027500Y002377
X033500Y008377
X039000Y010377
X032000Y003377
X032000Y004377
X037500Y006877
X034500Y006877
X033500Y011377
X029000Y007596
X027500Y014377
X029000Y004377
X033500Y012877
X034500Y009877
X023500Y006877
X023500Y003877
X046000Y008377
X033500Y003377
X042000Y010377
X032500Y014627
X045500Y005877
X039000Y008377
X042000Y004377
X042000Y005377
X042000Y007377
X044000Y005877
X023500Y002377
X027000Y012377
X023500Y005377
X029000Y005628
X044000Y008377
X042000Y009377
X034500Y005377
X029500Y012377
X044000Y001877
X027500Y005377
X027500Y003877
X023500Y008377
X027500Y006877
X031120Y006612
X032000Y002377
X027500Y008377
X037500Y005377
X037500Y009877
X029000Y002377
X037500Y012877
X045500Y001877
X037500Y003377
X042000Y006377
X029000Y003377
X039000Y004377
X042000Y008377
X039000Y009377
X032500Y008377
X037500Y011377
X039000Y003377
X039000Y007377
X037500Y008377
T111
X045000Y016377
X043818Y018228
X042637Y016377
T00
M30
